<svg width="300" height="200" viewBox="0 0 300 200" fill="none" xmlns="http://www.w3.org/2000/svg">
  <rect width="300" height="200" fill="#F8FAFC"/>
  <rect x="20" y="20" width="260" height="160" rx="8" fill="#FFFFFF" stroke="#E2E8F0" stroke-width="1"/>
  
  <!-- Header -->
  <rect x="30" y="30" width="240" height="30" rx="4" fill="#059669"/>
  <rect x="40" y="40" width="80" height="8" rx="1" fill="#FFFFFF"/>
  <rect x="200" y="40" width="20" height="6" rx="1" fill="#FFFFFF"/>
  <rect x="230" y="40" width="20" height="6" rx="1" fill="#FFFFFF"/>
  
  <!-- Featured Article -->
  <rect x="30" y="70" width="160" height="80" rx="4" fill="#F0FDF4"/>
  <rect x="40" y="80" width="140" height="12" rx="2" fill="#1F2937"/>
  <rect x="40" y="100" width="100" height="8" rx="1" fill="#6B7280"/>
  <rect x="40" y="115" width="120" height="6" rx="1" fill="#6B7280"/>
  <rect x="40" y="130" width="80" height="6" rx="1" fill="#6B7280"/>
  <rect x="40" y="145" width="60" height="8" rx="1" fill="#10B981"/>
  
  <!-- Sidebar -->
  <rect x="200" y="70" width="70" height="80" rx="4" fill="#F9FAFB"/>
  <rect x="210" y="80" width="50" height="8" rx="1" fill="#374151"/>
  <rect x="210" y="95" width="50" height="6" rx="1" fill="#9CA3AF"/>
  <rect x="210" y="110" width="50" height="6" rx="1" fill="#9CA3AF"/>
  <rect x="210" y="125" width="50" height="6" rx="1" fill="#9CA3AF"/>
  <rect x="210" y="140" width="50" height="6" rx="1" fill="#9CA3AF"/>
  
  <!-- Article List -->
  <rect x="30" y="160" width="240" height="20" rx="2" fill="#F3F4F6"/>
  <rect x="40" y="165" width="100" height="6" rx="1" fill="#374151"/>
  <rect x="150" y="165" width="60" height="6" rx="1" fill="#9CA3AF"/>
  <rect x="220" y="165" width="40" height="6" rx="1" fill="#9CA3AF"/>
</svg>
