<svg width="300" height="200" viewBox="0 0 300 200" fill="none" xmlns="http://www.w3.org/2000/svg">
  <rect width="300" height="200" fill="#F8FAFC"/>
  <rect x="20" y="20" width="260" height="160" rx="8" fill="#FFFFFF" stroke="#E2E8F0" stroke-width="1"/>
  
  <!-- Header -->
  <rect x="30" y="30" width="240" height="40" rx="4" fill="#7C3AED"/>
  <rect x="40" y="40" width="60" height="10" rx="2" fill="#FFFFFF"/>
  <rect x="40" y="55" width="40" height="6" rx="1" fill="#C4B5FD"/>
  
  <!-- Navigation -->
  <rect x="120" y="40" width="20" height="6" rx="1" fill="#FFFFFF"/>
  <rect x="150" y="40" width="20" height="6" rx="1" fill="#FFFFFF"/>
  <rect x="180" y="40" width="20" height="6" rx="1" fill="#FFFFFF"/>
  <rect x="210" y="40" width="20" height="6" rx="1" fill="#FFFFFF"/>
  
  <!-- Hero Section -->
  <rect x="30" y="80" width="240" height="50" rx="4" fill="#F3E8FF"/>
  <rect x="40" y="90" width="100" height="12" rx="2" fill="#1F2937"/>
  <rect x="40" y="110" width="80" height="8" rx="1" fill="#6B7280"/>
  <rect x="40" y="125" width="60" height="8" rx="1" fill="#7C3AED"/>
  
  <!-- Creative Grid -->
  <rect x="30" y="140" width="50" height="40" rx="4" fill="#FDF2F8"/>
  <rect x="35" y="145" width="40" height="30" rx="2" fill="#EC4899"/>
  
  <rect x="90" y="140" width="50" height="40" rx="4" fill="#F0FDF4"/>
  <rect x="95" y="145" width="40" height="30" rx="2" fill="#10B981"/>
  
  <rect x="150" y="140" width="50" height="40" rx="4" fill="#FEF3C7"/>
  <rect x="155" y="145" width="40" height="30" rx="2" fill="#F59E0B"/>
  
  <rect x="210" y="140" width="50" height="40" rx="4" fill="#E0E7FF"/>
  <rect x="215" y="145" width="40" height="30" rx="2" fill="#3B82F6"/>
</svg>
