<svg width="400" height="300" viewBox="0 0 400 300" xmlns="http://www.w3.org/2000/svg">
  <defs>
    <linearGradient id="bg" x1="0%" y1="0%" x2="100%" y2="100%">
      <stop offset="0%" style="stop-color:#ec4899;stop-opacity:1" />
      <stop offset="100%" style="stop-color:#be185d;stop-opacity:1" />
    </linearGradient>
    <linearGradient id="card" x1="0%" y1="0%" x2="100%" y2="100%">
      <stop offset="0%" style="stop-color:#ffffff;stop-opacity:0.95" />
      <stop offset="100%" style="stop-color:#fdf2f8;stop-opacity:0.95" />
    </linearGradient>
  </defs>
  
  <!-- Background -->
  <rect width="400" height="300" fill="url(#bg)"/>
  
  <!-- Header -->
  <rect x="20" y="20" width="360" height="40" rx="8" fill="url(#card)"/>
  <rect x="30" y="30" width="100" height="20" rx="4" fill="#ec4899"/>
  <rect x="320" y="30" width="50" height="20" rx="4" fill="#ec4899"/>
  
  <!-- Hero Section -->
  <rect x="20" y="80" width="360" height="120" rx="8" fill="url(#card)"/>
  <rect x="40" y="100" width="200" height="20" rx="4" fill="#ec4899"/>
  <rect x="40" y="130" width="150" height="15" rx="3" fill="#64748b"/>
  <rect x="40" y="155" width="100" height="25" rx="6" fill="#ec4899"/>
  
  <!-- Fashion Items -->
  <rect x="20" y="220" width="110" height="60" rx="6" fill="url(#card)"/>
  <rect x="30" y="230" width="90" height="30" rx="4" fill="#fdf2f8"/>
  <rect x="30" y="270" width="70" height="6" rx="2" fill="#ec4899"/>
  
  <rect x="145" y="220" width="110" height="60" rx="6" fill="url(#card)"/>
  <rect x="155" y="230" width="90" height="30" rx="4" fill="#fdf2f8"/>
  <rect x="155" y="270" width="70" height="6" rx="2" fill="#ec4899"/>
  
  <rect x="270" y="220" width="110" height="60" rx="6" fill="url(#card)"/>
  <rect x="280" y="230" width="90" height="30" rx="4" fill="#fdf2f8"/>
  <rect x="280" y="270" width="70" height="6" rx="2" fill="#ec4899"/>
</svg>
