<svg width="400" height="300" viewBox="0 0 400 300" xmlns="http://www.w3.org/2000/svg">
  <defs>
    <linearGradient id="bg" x1="0%" y1="0%" x2="100%" y2="100%">
      <stop offset="0%" style="stop-color:#1e3a8a;stop-opacity:1" />
      <stop offset="100%" style="stop-color:#3b82f6;stop-opacity:1" />
    </linearGradient>
    <linearGradient id="card" x1="0%" y1="0%" x2="100%" y2="100%">
      <stop offset="0%" style="stop-color:#ffffff;stop-opacity:0.95" />
      <stop offset="100%" style="stop-color:#f1f5f9;stop-opacity:0.95" />
    </linearGradient>
  </defs>
  
  <!-- Background -->
  <rect width="400" height="300" fill="url(#bg)"/>
  
  <!-- Header -->
  <rect x="20" y="20" width="360" height="40" rx="8" fill="url(#card)"/>
  <rect x="30" y="30" width="60" height="20" rx="4" fill="#1e3a8a"/>
  <rect x="320" y="30" width="50" height="20" rx="4" fill="#3b82f6"/>
  
  <!-- Hero Section -->
  <rect x="20" y="80" width="360" height="100" rx="8" fill="url(#card)"/>
  <circle cx="80" cy="130" r="25" fill="#3b82f6"/>
  <rect x="120" y="110" width="150" height="15" rx="3" fill="#1e3a8a"/>
  <rect x="120" y="135" width="100" height="10" rx="2" fill="#64748b"/>
  <rect x="120" y="155" width="80" height="20" rx="4" fill="#3b82f6"/>
  
  <!-- Portfolio Grid -->
  <rect x="20" y="200" width="110" height="80" rx="6" fill="url(#card)"/>
  <rect x="30" y="210" width="90" height="50" rx="4" fill="#e2e8f0"/>
  <rect x="30" y="270" width="70" height="6" rx="2" fill="#1e3a8a"/>
  
  <rect x="145" y="200" width="110" height="80" rx="6" fill="url(#card)"/>
  <rect x="155" y="210" width="90" height="50" rx="4" fill="#e2e8f0"/>
  <rect x="155" y="270" width="70" height="6" rx="2" fill="#1e3a8a"/>
  
  <rect x="270" y="200" width="110" height="80" rx="6" fill="url(#card)"/>
  <rect x="280" y="210" width="90" height="50" rx="4" fill="#e2e8f0"/>
  <rect x="280" y="270" width="70" height="6" rx="2" fill="#1e3a8a"/>
</svg>
