<svg width="300" height="200" viewBox="0 0 300 200" fill="none" xmlns="http://www.w3.org/2000/svg">
  <rect width="300" height="200" fill="#F8FAFC"/>
  <rect x="20" y="20" width="260" height="160" rx="8" fill="#FFFFFF" stroke="#E2E8F0" stroke-width="1"/>
  
  <!-- Header -->
  <rect x="30" y="30" width="240" height="40" rx="4" fill="#1F2937"/>
  <rect x="40" y="40" width="80" height="10" rx="2" fill="#FFFFFF"/>
  <rect x="40" y="55" width="60" height="6" rx="1" fill="#9CA3AF"/>
  
  <!-- Navigation -->
  <rect x="140" y="40" width="20" height="6" rx="1" fill="#FFFFFF"/>
  <rect x="170" y="40" width="20" height="6" rx="1" fill="#FFFFFF"/>
  <rect x="200" y="40" width="20" height="6" rx="1" fill="#FFFFFF"/>
  <rect x="230" y="40" width="20" height="6" rx="1" fill="#FFFFFF"/>
  
  <!-- Hero Section -->
  <rect x="30" y="80" width="240" height="60" rx="4" fill="#F3F4F6"/>
  <rect x="40" y="90" width="120" height="12" rx="2" fill="#1F2937"/>
  <rect x="40" y="110" width="100" height="8" rx="1" fill="#6B7280"/>
  <rect x="40" y="125" width="80" height="8" rx="1" fill="#1F2937"/>
  
  <!-- Photo Gallery -->
  <rect x="30" y="150" width="50" height="30" rx="4" fill="#E5E7EB"/>
  <rect x="35" y="155" width="40" height="20" rx="2" fill="#9CA3AF"/>
  
  <rect x="90" y="150" width="50" height="30" rx="4" fill="#E5E7EB"/>
  <rect x="95" y="155" width="40" height="20" rx="2" fill="#9CA3AF"/>
  
  <rect x="150" y="150" width="50" height="30" rx="4" fill="#E5E7EB"/>
  <rect x="155" y="155" width="40" height="20" rx="2" fill="#9CA3AF"/>
  
  <rect x="210" y="150" width="50" height="30" rx="4" fill="#E5E7EB"/>
  <rect x="215" y="155" width="40" height="20" rx="2" fill="#9CA3AF"/>
</svg>
